<svg width="21" height="18" viewBox="0 0 21 18" fill="none" xmlns="http://www.w3.org/2000/svg">
<path d="M11.0628 16.2766L18.2893 9.05014C20.0646 7.26583 20.3234 4.3485 18.6461 2.4839C18.2255 2.01402 17.7135 1.63483 17.1413 1.3695C16.5692 1.10418 15.949 0.958293 15.3186 0.940758C14.6881 0.923224 14.0608 1.03441 13.4748 1.26752C12.8888 1.50063 12.3565 1.85077 11.9104 2.29655L10.5543 3.66154L9.38559 2.4839C7.60128 0.708523 4.68395 0.449799 2.81935 2.12704C2.34947 2.54768 1.97028 3.0597 1.70495 3.63183C1.43963 4.20396 1.29374 4.82418 1.27621 5.4546C1.25867 6.08501 1.36986 6.71238 1.60297 7.29837C1.83608 7.88437 2.18622 8.41668 2.632 8.86279L10.0458 16.2766C10.1811 16.4106 10.3638 16.4858 10.5543 16.4858C10.7448 16.4858 10.9275 16.4106 11.0628 16.2766V16.2766Z" stroke="#A1A1A1" stroke-width="1.42744" stroke-linecap="round" stroke-linejoin="round"/>
</svg>
